<?xml version="1.0" encoding="iso-8859-1"?>
<!-- Generator: Adobe Illustrator 18.1.1, SVG Export Plug-In . SVG Version: 6.00 Build 0)  -->
<svg version="1.1" id="Capa_1" xmlns="http://www.w3.org/2000/svg" xmlns:xlink="http://www.w3.org/1999/xlink" x="0px" y="0px"
	 viewBox="0 0 518.765 518.765" style="enable-background:new 0 0 518.765 518.765;" xml:space="preserve">
<g>
	<g>
		<path fill="#067790" d="M385.487,283.289l53.786-53.192v255.2c0,7.57-2.688,13.945-8.065,19.125s-11.654,7.77-18.826,7.77
			H26.894c-7.172,0-13.447-2.59-18.826-7.77S0,492.867,0,485.297V119.531c0-7.57,2.689-13.945,8.068-19.125s11.654-7.77,18.826-7.77
			h273.127l-53.791,53.789H53.787v311.977h331.702L385.487,283.289L385.487,283.289z M307.194,30.48l48.407,46.617L193.64,239.062
			l97.418,97.416l161.965-161.964l50.203,51.398l15.539-219.34L307.194,30.48z"/>
	</g>
</g>
<g>
</g>
<g>
</g>
<g>
</g>
<g>
</g>
<g>
</g>
<g>
</g>
<g>
</g>
<g>
</g>
<g>
</g>
<g>
</g>
<g>
</g>
<g>
</g>
<g>
</g>
<g>
</g>
<g>
</g>
</svg>
