<?xml version="1.0" encoding="iso-8859-1"?>
<!DOCTYPE svg PUBLIC "-//W3C//DTD SVG 1.1//EN" "http://www.w3.org/Graphics/SVG/1.1/DTD/svg11.dtd">
<svg version="1.1" id="Capa_1" xmlns="http://www.w3.org/2000/svg" xmlns:xlink="http://www.w3.org/1999/xlink" x="0px" y="0px"
	  viewBox="0 0 95.617 95.617" style="enable-background:new 0 0 95.617 95.617;"
	 xml:space="preserve">
<g>
	<g>
		<path fill="#067790" d="M73.307,36.568v6.316c0,0.756,0.426,1.446,1.1,1.786c0.675,0.34,1.482,0.271,2.09-0.179l18.311-13.565
			c0.51-0.377,0.811-0.974,0.811-1.607c0-0.633-0.301-1.229-0.811-1.605L76.496,14.147c-0.607-0.45-1.416-0.52-2.09-0.18
			s-1.1,1.031-1.1,1.786v6.315H46.533c-0.718,0-1.38,0.386-1.736,1.009L24.244,59.042H2c-1.104,0-2,0.896-2,2v10.498
			c0,1.104,0.896,2,2,2h29.497c0.718,0,1.38-0.385,1.736-1.008l20.552-35.966L73.307,36.568L73.307,36.568z"/>
		<path fill="#067790" d="M94.807,64.692L76.496,51.126c-0.607-0.449-1.416-0.52-2.09-0.179c-0.674,0.34-1.1,1.029-1.1,1.785v6.316H53.785
			l-4.696-8.218L40.74,65.441l4.056,7.099c0.356,0.623,1.019,1.008,1.736,1.008h26.772v6.316c0,0.755,0.426,1.445,1.101,1.785
			c0.674,0.341,1.483,0.271,2.09-0.18l18.312-13.565c0.508-0.377,0.81-0.973,0.81-1.605S95.316,65.069,94.807,64.692z"/>
		<path fill="#067790" d="M2,36.577h22.244l4.692,8.21l8.349-14.61l-4.052-7.09c-0.356-0.623-1.019-1.008-1.736-1.008H2c-1.104,0-2,0.896-2,2
			v10.498C0,35.68,0.895,36.577,2,36.577z"/>
	</g>
</g>
<g>
</g>
<g>
</g>
<g>
</g>
<g>
</g>
<g>
</g>
<g>
</g>
<g>
</g>
<g>
</g>
<g>
</g>
<g>
</g>
<g>
</g>
<g>
</g>
<g>
</g>
<g>
</g>
<g>
</g>
</svg>
